# xmcd
#
# Track frame offsets:
#	183
#	13638
#	24565
#	37410
#	59118
#	72753
#	82558
#	94405
#	121065
#	140935
#	172948
#	203305
#	212915
#	223900
#	251388
#	266718
#	300465
#	326763
#
# Disc length: 4721 seconds
#
# Revision: 4
# Processed by: cddbd v1.5.2PL0 Copyright (c) Steve Scherf et al.
# Submitted via: audiograbber 1.83.01
#
DISCID=08126f12
DTITLE=Various Artist - Guitar Heroes Volume 2
DYEAR=1996
DGENRE=Blues
TTITLE0=Elmore James - Dust My Broom
TTITLE1=Eric Clapton With The Yardbirds - Boom Boom
TTITLE2=T Bone Walker - Stormy Monday Blues
TTITLE3=Santana - Travelin' Blues
TTITLE4=Eddie Taylor - Bad Boy
TTITLE5=Eric Clapton with John Mayal and His Bluesbreakers - I'm Your Witchdoctor
TTITLE6=Jeff Beck - I'm A Man
TTITLE7=Albert King - King's Groove
TTITLE8=Albert Collins - Too Many Dirty Dishes
TTITLE9=Santana - Every Day I Have The Blues
TTITLE10=Freddie King - Look On Yonder Wall
TTITLE11=Eric Clapton - Tribute To Elmore
TTITLE12=Jimi Hendrix - Goodbye Bessie Mae
TTITLE13=Freddie King - Woman Across The River
TTITLE14=Lighning Hopkins - Big Car Blues
TTITLE15=Albert King - The Sky Is Crying
TTITLE16=Albert Collins - The Things I Used To Do
TTITLE17=Jimi Hendrix - Woke Up This Morning And Found Myself Dead
EXTD=
EXTT0=
EXTT1=
EXTT2=
EXTT3=
EXTT4=
EXTT5=
EXTT6=
EXTT7=
EXTT8=
EXTT9=
EXTT10=
EXTT11=
EXTT12=
EXTT13=
EXTT14=
EXTT15=
EXTT16=
EXTT17=
PLAYORDER=
